<svg xmlns="http://www.w3.org/2000/svg" fill="none" stroke="currentColor" stroke-width="1.7" stroke-linecap="round" stroke-linejoin="round" viewBox="0 0 24 24">
  <!-- Спрайт иконок: стиль panel-icons.svg из bar_order_bot (контур 1.7, скругления). -->
  <symbol id="home" viewBox="0 0 24 24"><path d="M3 11.5 12 4l9 7.5"/><path d="M5.5 9.5V20h13V9.5"/><path d="M10 20v-5h4v5"/></symbol>
  <symbol id="book" viewBox="0 0 24 24"><path d="M4 5.5A2.5 2.5 0 0 1 6.5 3H20v15H6.5A2.5 2.5 0 0 0 4 20.5z"/><path d="M4 20.5A2.5 2.5 0 0 1 6.5 18H20v3H6.5A2.5 2.5 0 0 1 4 20.5zM9 7h7M9 10.5h5"/></symbol>
  <symbol id="lesson" viewBox="0 0 24 24"><rect x="3" y="4" width="18" height="13" rx="2"/><path d="M12 4v13M7 8h2M7 11h2M15 8h2M15 11h2M8 21h8M12 17v4"/></symbol>
  <symbol id="user" viewBox="0 0 24 24"><circle cx="12" cy="8" r="4"/><path d="M4 21a8 8 0 0 1 16 0"/></symbol>
  <symbol id="logout" viewBox="0 0 24 24"><path d="M9 4H4v16h5M9 12h12m-5-5 5 5-5 5"/></symbol>
  <symbol id="arrow" viewBox="0 0 24 24"><path d="M5 12h14m-6-6 6 6-6 6"/></symbol>
  <symbol id="check" viewBox="0 0 24 24"><path d="m5 12 4 4L19 6"/></symbol>
  <symbol id="close" viewBox="0 0 24 24"><path d="m6 6 12 12M6 18 18 6"/></symbol>
  <symbol id="refresh" viewBox="0 0 24 24"><path d="M20 7v5h-5M4 17v-5h5M6 6a8 8 0 0 1 14 6M4 12a8 8 0 0 0 14 6"/></symbol>
  <symbol id="send" viewBox="0 0 24 24"><path d="M21 3 10 14M21 3l-7 18-4-7-7-4z"/></symbol>
  <symbol id="play" viewBox="0 0 24 24"><path d="M7 4.5v15L19 12z"/></symbol>
  <symbol id="code" viewBox="0 0 24 24"><path d="m8 7-5 5 5 5M16 7l5 5-5 5M14 4l-4 16"/></symbol>
  <symbol id="route" viewBox="0 0 24 24"><circle cx="6" cy="19" r="2"/><circle cx="18" cy="5" r="2"/><path d="M8 19h7.5a3.5 3.5 0 0 0 0-7h-7a3.5 3.5 0 0 1 0-7H16"/></symbol>
  <symbol id="chart" viewBox="0 0 24 24"><path d="M4 4v16h17M8 16v-5M13 16V6M18 16V9"/></symbol>
  <symbol id="clock" viewBox="0 0 24 24"><circle cx="12" cy="12" r="9"/><path d="M12 7v5l3 2"/></symbol>
  <symbol id="eye" viewBox="0 0 24 24"><path d="M2 12s3.5-7 10-7 10 7 10 7-3.5 7-10 7S2 12 2 12z"/><circle cx="12" cy="12" r="3"/></symbol>
  <symbol id="spark" viewBox="0 0 24 24"><path d="M12 3v4M12 17v4M3 12h4M17 12h4M6 6l2.5 2.5M15.5 15.5 18 18M6 18l2.5-2.5M15.5 8.5 18 6"/></symbol>
  <symbol id="sidebar" viewBox="0 0 24 24"><rect x="3" y="4" width="18" height="16" rx="2"/><path d="M9 4v16M15 10l-2 2 2 2"/></symbol>
  <symbol id="sun" viewBox="0 0 24 24"><circle cx="12" cy="12" r="4"/><path d="M12 2v2M12 20v2M4.9 4.9l1.4 1.4M17.7 17.7l1.4 1.4M2 12h2M20 12h2M4.9 19.1l1.4-1.4M17.7 6.3l1.4-1.4"/></symbol>
  <symbol id="monitor" viewBox="0 0 24 24"><rect x="3" y="4" width="18" height="12" rx="2"/><path d="M8 20h8M12 16v4"/></symbol>
  <symbol id="moon" viewBox="0 0 24 24"><path d="M20 14.5A8 8 0 1 1 9.5 4a6.5 6.5 0 0 0 10.5 10.5z"/></symbol>
</svg>
